<?xml version="1.0" encoding="UTF-8"?>
<svg id="Layer_1" xmlns="http://www.w3.org/2000/svg" version="1.1" viewBox="0 0 595.3 174.7">
  <!-- Generator: Adobe Illustrator 29.7.0, SVG Export Plug-In . SVG Version: 2.1.1 Build 88)  -->
  <defs>
    <style>
      .st0, .st1 {
        fill: #1a3370;
      }

      .st2, .st3 {
        fill: #621444;
      }

      .st3, .st1 {
        fill-rule: evenodd;
      }
    </style>
  </defs>
  <g>
    <g>
      <g>
        <g>
          <path class="st1" d="M550.9,21.1v108h-45.2c-.7.6-1.4,1.2-2.1,1.8-.9.7-1.8,1.3-2.7,2-1,.7-2.2,1.4-3.3,2-1.2.6-2.4,1.2-3.7,1.7-1.3.5-2.6,1-3.9,1.4-1.4.4-2.7.8-4.1,1-1.4.3-2.8.5-4.2.6-1.5.1-2.9.2-4.4.2s-2.8,0-4.3-.2c-1.4-.1-2.8-.3-4.1-.6-1.4-.3-2.7-.6-4-1-1.3-.4-2.6-.9-3.8-1.5-1.2-.5-2.4-1.1-3.5-1.8-1.1-.6-2.2-1.3-3.2-2-.9-.6-1.7-1.3-2.5-1.9-.7-.6-1.3-1.1-2-1.8h-54.7v6.5c0,1.5-.3,3.5-1,5.5-1.1,3.4-3.1,7.1-6.2,10-3.1,2.9-7.3,5-12.8,5s-5-.4-7.9-1.3l-.9-.3v-15.8l1.7.7c1.9.8,3.4,1.1,4.7,1.1s2.6-.4,3.5-1.1c.9-.7,1.5-1.7,2-2.9.8-2.1,1.1-4.4,1.1-6.2v-64.4l15.8-11.5v58.9s62.1,0,62.1,0l.4.5c.4.5.7,1,1.1,1.5.4.5.8.9,1.2,1.4v.2c.6.5,1.2,1,1.7,1.5h0c.6.5,1.2,1,1.9,1.4.6.5,1.3.9,2,1.3.7.4,1.4.7,2.2,1.1l1.3.5c1.7.6,2.5.8,3.3,1,.8.2,1.6.3,2.4.4.8,0,1.7.1,2.6.1s1.9,0,2.8-.1c.9,0,1.7-.2,2.6-.4h0c.8-.2,1.7-.4,2.5-.6.8-.2,1.6-.5,2.4-.8.8-.3,1.5-.7,2.3-1,.7-.4,1.4-.8,2.1-1.2.7-.4,1.3-.9,1.9-1.4.6-.5,1.2-1,1.7-1.5.5-.5,1.1-1.1,1.6-1.7.5-.6,1-1.2,1.4-1.9.4-.7.9-1.4,1.2-2.1.4-.7.7-1.5,1.1-2.2.3-.7.6-1.5.8-2.3.3-.8.5-1.6.6-2.5.2-.9.3-1.7.4-2.6s.1-1.8.1-2.7,0-1.9-.1-2.8c0-.9-.2-1.8-.4-2.6-.2-.8-.4-1.7-.6-2.5-.2-.8-.5-1.6-.8-2.4-.3-.8-.7-1.5-1-2.3-.4-.7-.8-1.4-1.2-2.1-.4-.7-.9-1.3-1.4-1.9-.5-.6-1-1.2-1.6-1.7-.6-.6-1.2-1.1-1.8-1.6-.6-.5-1.2-.9-1.9-1.4-.7-.4-1.4-.8-2.1-1.2-.7-.4-1.5-.7-2.3-1-.8-.3-1.6-.6-2.4-.8-.8-.2-1.6-.4-2.5-.6-.9-.2-1.7-.3-2.6-.4-.9,0-1.8-.1-2.7-.1s-1.8,0-2.6.1c-.9,0-1.7.2-2.5.4s-1.6.4-2.4.6c-.6.2-1.2.4-1.8.7l-.4.2c-.8.3-1.5.7-2.2,1.1-.7.4-1.4.8-2,1.3-.6.5-1.3.9-1.8,1.5-.4.4-.8.8-1.2,1.2l-.4.5c-.5.6-1.1,1.2-1.5,1.8-.5.6-.9,1.3-1.4,1.9-.4.7-.8,1.4-1.2,2.1-.4.7-.7,1.5-1,2.2-.3.8-.6,1.5-.8,2.3-.2.8-.4,1.6-.6,2.4-.2.8-.3,1.7-.3,2.5,0,.8-.1,1.7-.1,2.6s0,1.7.1,2.5c0,.8.2,1.6.3,2.4h0c.1.6.3,1.2.4,1.8h-16.2c0-.4,0-.7-.1-1.1-.2-1.8-.3-3.7-.3-5.6s0-2.7.2-4.1c.1-1.4.3-2.7.6-4,.3-1.3.6-2.6,1-3.9.4-1.3.8-2.5,1.4-3.8.5-1.2,1.1-2.4,1.7-3.6.6-1.2,1.3-2.3,1.9-3.4.7-1.1,1.4-2.1,2.2-3.1.8-1,1.6-2,2.5-2.9.9-.9,1.8-1.8,2.8-2.7,1-.9,2-1.6,3-2.4,1-.7,2.1-1.4,3.3-2.1,1.2-.7,2.3-1.3,3.5-1.8l1-.5h0c.9-.3,1.8-.7,2.7-1,1.3-.4,2.6-.8,3.9-1,1.3-.3,2.7-.5,4.1-.6,1.4-.1,2.8-.2,4.2-.2s2.9,0,4.3.2c1.4.1,2.8.3,4.2.6,1.4.3,2.7.6,4,1,1.3.4,2.6.9,3.9,1.4,1.2.5,2.4,1.1,3.6,1.7.9.5,1.7,1,2.5,1.5h0s.8.6.8.6c1.1.7,2.2,1.5,3.1,2.3.9.7,1.7,1.5,2.5,2.3h0l.4.4c.9.9,1.8,1.9,2.6,2.9.8,1,1.6,2.1,2.3,3.2.7,1.1,1.4,2.2,2,3.4.6,1.2,1.2,2.4,1.7,3.6.5,1.2,1,2.5,1.4,3.8.4,1.3.7,2.6,1,4,.3,1.3.5,2.7.6,4.1.1,1.4.2,2.9.2,4.3s0,2,0,3.1c0,1-.2,2-.3,3-.1,1-.3,2-.5,2.9-.2,1-.5,1.9-.7,2.8-.2.7-.4,1.4-.7,2.2v.3c0,0,19,0,19,0V33.2l15.8-12Z"/>
          <path class="st1" d="M61.4,129.1c-.7,0-1.6,0-2.6,0-.9,0-1.7,0-2.6,0-.9,0-1.7,0-2.4-.1-.7,0-1.5-.1-2.2-.2h0c-.8,0-1.5-.2-2.1-.3-.7-.1-1.4-.2-2-.4-.7-.1-1.3-.3-2-.4-.7-.2-1.3-.3-1.9-.5-.6-.2-1.2-.4-1.8-.6-.5-.2-1.1-.4-1.8-.7-.6-.2-1.1-.5-1.7-.7h0c-.5-.2-1-.5-1.6-.8-.5-.3-1-.6-1.5-.9h0c-.4-.3-1-.6-1.5-1-.5-.4-1-.7-1.5-1-.5-.3-1-.7-1.5-1.1h0c-1.9-1.4-3.5-3.1-4.9-4.9-1.4-1.9-2.5-3.9-3.4-6.3-.4-1.1-.8-2.2-1.1-3.3-.3-1.1-.6-2.2-.8-3.2-.2-1.1-.4-2.1-.5-3.2-.1-1.1-.2-2.2-.2-3.2v-19.2l15.4,12.6.4.9v4.4c0,1.9.1,3.6.4,5.1.2,1.4.6,2.7,1.1,3.7l.2.5c.2.3.3.6.5.9.3.5.6.9.9,1.3.3.4.7.8,1.1,1.2h0c.4.4.8.7,1.3,1.1h0c.5.4,1,.7,1.5,1.1.5.3,1.1.6,1.7.9.6.3,1.2.6,1.9.8.7.3,1.4.5,2,.7.7.2,1.5.4,2.2.5h0c.8.2,1.5.3,2.2.4h0c.7,0,1.5.2,2.4.2.8,0,1.6,0,2.5,0h56.5v-39.5l15.7-11v66.2H61.4Z"/>
          <path class="st1" d="M359.9,115.8c-2.2,2.4-4.6,4.5-7.5,6.4-1,.7-2.2,1.4-3.3,2-1.2.6-2.4,1.2-3.6,1.7-3.5,1.5-6.7,2.3-9.8,2.8-3.2.4-6.3.5-9.8.5h-181.7s-3.4,0-3.4,0V63.9l15.8-12v61.5h169c4.9,0,8.7,0,13.5-1.9.8-.3,1.5-.7,2.3-1,.7-.4,1.4-.8,2.1-1.2.7-.4,1.3-.9,1.9-1.4.6-.5,1.2-1,1.7-1.5.5-.5,1.1-1.1,1.6-1.7s1-1.2,1.4-1.9c.4-.7.9-1.3,1.2-2.1.4-.7.7-1.5,1.1-2.2.3-.7.6-1.5.8-2.3.3-.8.5-1.6.6-2.5.2-.9.3-1.7.4-2.6,0-.9.1-1.8.1-2.7s0-1.9-.1-2.7c0-.9-.2-1.7-.4-2.6h0c-.2-.9-.4-1.7-.6-2.5-.2-.8-.5-1.6-.8-2.4h0c-.3-.8-.7-1.5-1-2.3-.4-.7-.8-1.4-1.2-2.1-.4-.7-.9-1.3-1.4-1.9-.5-.6-1-1.2-1.6-1.7-.6-.5-1.2-1.1-1.8-1.6-.6-.5-1.3-1-1.9-1.4-.7-.4-1.4-.8-2.1-1.2-.7-.4-1.5-.7-2.3-1.1l-.4-.2c-.7-.3-1.3-.5-2-.7-.8-.2-1.6-.4-2.5-.6h0c-.9-.2-1.7-.3-2.6-.4-.9,0-1.8-.1-2.7-.1s-1.8,0-2.7.1c-.9,0-1.7.2-2.5.4-.8.2-1.6.4-2.3.6-.8.3-1.5.5-2.3.9-.8.3-1.5.7-2.2,1.1-.7.4-1.3.8-2,1.3-.6.5-1.2.9-1.8,1.4-.6.5-1.1,1.1-1.7,1.6l-.4.4c-.4.4-.8.9-1.2,1.4-.5.6-.9,1.3-1.4,2-.4.7-.8,1.4-1.2,2.1-.4.7-.7,1.5-1,2.2h0c-.3.8-.6,1.5-.8,2.3-.2.8-.4,1.6-.6,2.4-.2.8-.3,1.7-.4,2.5,0,.8-.1,1.7-.1,2.6,0,1.7.2,3.3.5,4.9.3,1.6.8,3.2,1.4,4.7.3.7.6,1.5,1,2.2.4.8.8,1.4,1.2,2.1.4.7.9,1.3,1.4,1.9.4.5.9,1,1.3,1.5h-18.8c-.3-.6-.5-1.1-.7-1.7-.4-.9-.7-1.9-1-2.8-.1-.4-.3-.9-.4-1.3h0s-.4-1.6-.4-1.6c-.3-1.4-.6-2.7-.8-4-.2-1.3-.3-2.6-.3-4,0-.4,0-.8,0-1.1,0-.5,0-.8,0-.9,0-1.4,0-2.7.2-4.1.1-1.4.3-2.7.6-4,.3-1.3.6-2.6,1-3.9.4-1.3.8-2.5,1.4-3.8.5-1.2,1.1-2.4,1.7-3.6.6-1.2,1.3-2.3,2-3.4.7-1.1,1.4-2.1,2.2-3.1.8-1,1.6-2,2.5-2.9.9-.9,1.8-1.8,2.8-2.7,1-.8,2-1.6,3-2.4,1-.7,2.1-1.4,3.3-2.1,1.2-.7,2.3-1.3,3.5-1.8l1.1-.5h0c.9-.3,1.8-.7,2.7-.9,1.3-.4,2.6-.8,3.9-1,1.3-.3,2.7-.5,4.1-.6,1.4-.1,2.8-.2,4.2-.2,3,0,5.8.3,8.5.8,2.7.5,5.4,1.3,7.9,2.4,1.2.5,2.4,1.1,3.6,1.7.8.5,1.7.9,2.4,1.4h0s.9.6.9.6c1.1.7,2.2,1.5,3.2,2.3,17.3,14.2,19.9,42.2,4.6,59.2Z"/>
        </g>
        <rect class="st0" x="307.6" y="24.4" width="16.8" height="14.8"/>
        <rect class="st0" x="330.7" y="24.4" width="16.8" height="14.8"/>
      </g>
      <polygon class="st1" points="576.9 21.1 576.9 129.1 561.1 129.1 561.1 33.2 576.9 21.1"/>
      <polygon class="st3" points="156.5 18.9 156.5 40.9 140.8 52.9 140.8 30.9 156.5 18.9"/>
    </g>
    <rect class="st0" x="69.6" y="136.8" width="16.8" height="14.8"/>
  </g>
  <g>
    <path class="st2" d="M195.8,39.1h-5.9c-1.6,2.9-4.5,4.7-7.6,4.7-4.9,0-9-4.3-9-9.7v-2.8h3.2v2.4c0,3.9,2.3,7,5.8,7s5.7-3,5.7-7v-12.9h3.2v13.2c0,.6,0,1.2-.2,1.8h4.8v3.2Z"/>
    <path class="st2" d="M200.8,39.1h-6.2v-3.2h6.2v3.2Z"/>
    <path class="st2" d="M203.1,23.6h-3.1v-3.1h3.1v3.1ZM213.2,39.1h-13v-3.2h2.9c.9,0,1.6-.3,1.9-1,.2-.4.3-1.2.3-2.1v-6.5h3.1v6.3c0,1.7-.2,2.7-.7,3.3h5.4v3.2ZM208.4,23.6h-3.1v-3.1h3.1v3.1Z"/>
    <path class="st2" d="M218.6,39.1h-6.2v-3.2h6.2v3.2Z"/>
    <path class="st2" d="M224.1,39.1h-6.2v-3.2h6.2v3.2Z"/>
    <path class="st2" d="M226.4,45.3h-3.1v-3.2h3.1v3.2ZM236.4,39.1h-13v-3.2h3c.9,0,1.6-.3,1.9-1,.2-.4.3-1.2.3-2.1v-6.5h3.1v6.3c0,1.7-.2,2.7-.7,3.3h5.3v3.2ZM231.7,45.3h-3.1v-3.2h3.1v3.2Z"/>
    <path class="st2" d="M241.9,39.1h-6.2v-3.2h6.2v3.2Z"/>
    <path class="st2" d="M247.5,39.1h-6.2v-3.2h6.2v3.2Z"/>
    <path class="st2" d="M254.8,34c0,3.4-1.6,5.1-4.7,5.1h-3v-3.2h2.4c1,0,1.7-.3,2-.9.1-.3.2-1,.2-2v-6.6h3.1v7.7ZM254.8,45.3h-3.1v-3.2h3.1v3.2Z"/>
    <path class="st2" d="M266.1,39.1h-3.7c-1.5,0-2.7-.5-3.5-1.5-.8-.9-1.1-2.1-1.1-3.7v-13.1h3.1v11.8c0,1.4.3,2.3.9,2.7.4.3,1.2.5,2.4.5h1.9v3.2Z"/>
    <path class="st2" d="M271.4,39.1h-6.2v-3.2h6.2v3.2Z"/>
    <path class="st2" d="M289.6,37.1v2h-18.9v-3.2h15.5c0-1.8-.5-3.2-1.5-4.5-1.2-1.4-2.8-2.1-4.9-2.1h-6.5l5.6-8.4h3.8l-3.8,5.4h1.4c2.1,0,3.9.5,5.4,1.6,2.7,1.8,4,4.9,4,9.3Z"/>
  </g>
</svg>