<?xml version="1.0" encoding="UTF-8"?><svg id="Layer_2" xmlns="http://www.w3.org/2000/svg" viewBox="0 0 572.88 122.81"><g id="Layer_1-2"><path d="M568.18,47.92c-9-16.6-28.25-24.81-45.88-19.37-1.73.53-3.89.78-5.4,1.8v20.2c.43-.27.68-.43.91-.62,9.8-7.87,20.08-8.54,28.63-1.84,8.69,6.82,11.81,18.34,7.59,28.09-4.12,9.53-14.8,15.38-24.91,13.64-10.45-1.8-17.85-11.08-18.47-23.28-.14-2.67-.05-5.36-.05-8.04,0-17.53,0-35.06,0-52.59l-16.97,14.05c-.06.55-.09,1.12-.09,1.72.17,15.49.09,30.98.07,46.47-.01,12.54,5.53,22.35,15.12,30.07,14.15,11.4,35.15,11.24,49.08-.21,15.11-12.42,19.45-33.36,10.38-50.09" style="fill:#fff;"/><path d="M401.44,96.82c-1.36-12.99,1.62-26.27-1.49-39.27h0c-4.24-21.56-26.62-35.04-48.64-29.3-21.14,5.51-33.95,28.85-27.5,50.07,6.6,21.7,30.1,33.88,50.64,26.18,1.32-.5,2.85-.83,3.98-1.62v-20.06c-11.27,8.47-20.93,9.3-29.21,3.33-8.85-6.38-12.37-17.73-8.64-27.86,3.55-9.64,13.68-15.74,24.35-14.49,9.83,1.16,15.04,7.81,18.84,16.02.44.99.65,1.99.75,3.01-.22-1-.46-2.01-.75-3.01v62.98l17.67-14.64v-11.36Z" style="fill:#fff;"/><path d="M190.31,34.04c-3.12,2.33-4.49,2.23-7.3-.16-10.06-8.57-21.51-8.61-32.85-3.32-11.34,5.3-16.62,15.05-17.01,27.33-.22,6.84-.04,13.69-.04,20.54h-.07c0,7.14.55,14.34-.16,21.42-.07.75-.09,1.4-.06,2h17.4c.04-.54.06-1.11.03-1.78-.62-13.67-.44-27.39-.04-41.08.29-10.07,5.69-15.58,13.75-15.3,8.79.3,13.95,6.12,14.03,16.13.1,13.4.5,26.82-.16,40.18-.03.69-.02,1.29.02,1.84h17.79c.03-.49.04-1.01.02-1.6-.54-12.48-.15-25-.13-37.51.01-12.93,4.77-19.13,14.59-19.07,9.02.05,13.16,6.13,13.19,19.46.03,12.8.23,25.61-.09,38.4,0,.11,0,.21,0,.31h17.41c.1-15.94,1.58-31.98-.69-47.8-3.52-24.43-29.72-34.86-49.64-20.02" style="fill:#fff;"/><path d="M79.06,63.45c-.42-16.07-12.51-30.59-28.62-34.99-17.13-4.69-34.07,1.7-43.93,16.57-9.46,14.26-8.52,33.48,2.28,46.73,10.85,13.3,28.49,18.44,43.64,12.78,1.68-.63,3.31-1.2,4.36-2.33v-20.02c-4.93,4.44-9.18,7.38-14.68,7.87-12.35,1.11-23.5-8.1-24.88-20.68-1.39-12.69,7.47-24.2,19.66-25.57,13.02-1.46,24.28,7.37,25.2,20.91.79,11.56.64,23.23.12,34.82-.04.87-.02,1.63.05,2.32h17.06c.04-.54.05-1.12.01-1.79-.67-12.17.03-24.41-.29-36.62" style="fill:#fff;"/><path d="M86.9,19.85c-.04.37-.09.74-.1,1.14-.46,26.72.02,53.45-.26,80.17,0,.25.01.47.02.7h17.36c0-.1,0-.19,0-.29-.03-31.94-.01-63.87-.01-95.81l-17.01,14.09Z" style="fill:#fff;"/><path d="M310.42,27.15c-19.66-.03-34.55,13.12-35.41,32.71-.59,13.65.17,27.35-.28,41.01-.01.36,0,.67.01.99h17.13c.01-.36.02-.74,0-1.16-.49-12.76-.13-25.56-.13-38.34,0-7.92,3.64-13.6,10.73-17.13,6.04-3.01,11.72-1.11,17.86,1.59v-16.99c-2.01-2.02-5.45-2.68-9.92-2.69" style="fill:#fff;"/><polygon points="266.45 33.67 249.11 47.93 249.11 101.54 266.45 101.54 266.45 33.67" style="fill:#fff;"/><path d="M486.88,65.74c-.52-23.08-18.02-39.23-41.53-38.58-21.39.59-37.76,18.71-37.2,41.15.55,21.98,17.93,38.48,40.23,38.18,8.11-.11,12.59-.82,15-3.66v-19.44c-4.36,3.52-8.2,6.11-13.13,6.63-12.19,1.29-23.88-8.07-25.22-20.32-1.44-13.18,7.63-24.81,20.21-25.94,13.1-1.18,24.04,8.02,24.64,21.43.5,11.29.64,22.65.06,33.93-.05,1.05-.02,1.94.08,2.72h17.06c.12-.87.15-1.87.06-3.08-.75-10.97-.03-22.02-.27-33.04" style="fill:#fff;"/><polygon points="266.44 .58 266.44 23.3 249.11 38.22 249.11 14.86 266.44 .58" style="fill:#fff;"/><path d="M304.02,3.15l-2.09,1.99c-1.42-1.5-3.02-2.25-4.79-2.25-1.5,0-2.76.51-3.79,1.54-1.03,1.02-1.54,2.29-1.54,3.79,0,1.05.23,1.97.68,2.79.45.81,1.1,1.45,1.93,1.91.83.46,1.76.69,2.77.69.87,0,1.66-.16,2.38-.49.72-.32,1.51-.91,2.37-1.77l2.02,2.11c-1.16,1.13-2.25,1.92-3.28,2.35-1.03.44-2.21.65-3.53.65-2.44,0-4.43-.77-5.99-2.32s-2.33-3.53-2.33-5.94c0-1.56.35-2.95,1.06-4.17.71-1.22,1.72-2.19,3.04-2.93,1.32-.74,2.74-1.11,4.26-1.11,1.29,0,2.54.27,3.74.82s2.23,1.32,3.1,2.33Z" style="fill:#fff;"/><path d="M328.02.4h3.03l6.03,15.69h-3.1l-1.23-3.23h-6.4l-1.28,3.23h-3.1l6.05-15.69ZM329.56,4.55l-2.1,5.39h4.2l-2.09-5.39Z" style="fill:#fff;"/><path d="M355.98.4h3.17c1.71,0,2.95.16,3.71.47.76.32,1.35.83,1.79,1.54s.66,1.55.66,2.54c0,1.1-.29,2.01-.86,2.73s-1.35,1.23-2.33,1.51c-.58.16-1.62.25-3.15.25v6.64h-2.99V.4ZM358.97,6.53h.95c.75,0,1.27-.05,1.56-.16s.52-.28.69-.53.25-.54.25-.89c0-.61-.23-1.05-.7-1.33-.34-.21-.97-.31-1.9-.31h-.84v3.22Z" style="fill:#fff;"/><path d="M384.61.4h2.96v15.69h-2.96V.4Z" style="fill:#fff;"/><path d="M405.99.4h8.67v2.94h-2.86v12.74h-3.03V3.34h-2.78V.4Z" style="fill:#fff;"/><path d="M438.09.4h3.03l6.03,15.69h-3.1l-1.23-3.23h-6.4l-1.28,3.23h-3.1l6.05-15.69ZM439.62,4.55l-2.1,5.39h4.2l-2.09-5.39Z" style="fill:#fff;"/><path d="M466.06.4h2.99v12.84h4.35v2.85h-7.34V.4Z" style="fill:#fff;"/></g></svg>