<?xml version="1.0" encoding="UTF-8"?>
<svg id="Layer_1" xmlns="http://www.w3.org/2000/svg" version="1.1" viewBox="0 0 595.3 174.7">
  <!-- Generator: Adobe Illustrator 29.7.0, SVG Export Plug-In . SVG Version: 2.1.1 Build 88)  -->
  <defs>
    <style>
      .st0 {
        fill: #1a3370;
      }

      .st1 {
        fill: #621444;
      }
    </style>
  </defs>
  <g>
    <path class="st0" d="M579.5,74c-9-16.6-28.3-24.8-45.9-19.4-1.7.5-3.9.8-5.4,1.8v20.2c.4-.3.7-.4.9-.6,9.8-7.9,20.1-8.5,28.6-1.8,8.7,6.8,11.8,18.3,7.6,28.1-4.1,9.5-14.8,15.4-24.9,13.6-10.5-1.8-17.8-11.1-18.5-23.3-.1-2.7,0-5.4,0-8,0-17.5,0-35.1,0-52.6l-17,14.1c0,.6,0,1.1,0,1.7.2,15.5,0,31,0,46.5,0,12.5,5.5,22.4,15.1,30.1,14.2,11.4,35.1,11.2,49.1-.2,15.1-12.4,19.4-33.4,10.4-50.1"/>
    <path class="st0" d="M412.8,122.9c-1.4-13,1.6-26.3-1.5-39.3h0c-4.2-21.6-26.6-35-48.6-29.3-21.1,5.5-34,28.8-27.5,50.1,6.6,21.7,30.1,33.9,50.6,26.2,1.3-.5,2.9-.8,4-1.6v-20.1c-11.3,8.5-20.9,9.3-29.2,3.3-8.8-6.4-12.4-17.7-8.6-27.9,3.6-9.6,13.7-15.7,24.3-14.5,9.8,1.2,15,7.8,18.8,16,.4,1,.7,2,.7,3-.2-1-.5-2-.7-3v63l17.7-14.6v-11.4Z"/>
    <path class="st0" d="M201.7,60.1c-3.1,2.3-4.5,2.2-7.3-.2-10.1-8.6-21.5-8.6-32.8-3.3-11.3,5.3-16.6,15-17,27.3-.2,6.8,0,13.7,0,20.5h0c0,7.1.5,14.3-.2,21.4,0,.7,0,1.4,0,2h17.4c0-.5,0-1.1,0-1.8-.6-13.7-.4-27.4,0-41.1.3-10.1,5.7-15.6,13.7-15.3,8.8.3,14,6.1,14,16.1.1,13.4.5,26.8-.2,40.2,0,.7,0,1.3,0,1.8h17.8c0-.5,0-1,0-1.6-.5-12.5-.1-25-.1-37.5,0-12.9,4.8-19.1,14.6-19.1,9,0,13.2,6.1,13.2,19.5,0,12.8.2,25.6,0,38.4,0,.1,0,.2,0,.3h17.4c0-15.9,1.6-32-.7-47.8-3.5-24.4-29.7-34.9-49.6-20"/>
    <path class="st0" d="M90.4,89.5c-.4-16.1-12.5-30.6-28.6-35-17.1-4.7-34.1,1.7-43.9,16.6-9.5,14.3-8.5,33.5,2.3,46.7,10.9,13.3,28.5,18.4,43.6,12.8,1.7-.6,3.3-1.2,4.4-2.3v-20c-4.9,4.4-9.2,7.4-14.7,7.9-12.3,1.1-23.5-8.1-24.9-20.7-1.4-12.7,7.5-24.2,19.7-25.6,13-1.5,24.3,7.4,25.2,20.9.8,11.6.6,23.2.1,34.8,0,.9,0,1.6,0,2.3h17.1c0-.5,0-1.1,0-1.8-.7-12.2,0-24.4-.3-36.6"/>
    <path class="st0" d="M98.3,45.9c0,.4,0,.7,0,1.1-.5,26.7,0,53.4-.3,80.2,0,.3,0,.5,0,.7h17.4c0,0,0-.2,0-.3,0-31.9,0-63.9,0-95.8l-17,14.1Z"/>
    <path class="st0" d="M321.8,53.2c-19.7,0-34.6,13.1-35.4,32.7-.6,13.6.2,27.4-.3,41,0,.4,0,.7,0,1h17.1c0-.4,0-.7,0-1.2-.5-12.8-.1-25.6-.1-38.3,0-7.9,3.6-13.6,10.7-17.1,6-3,11.7-1.1,17.9,1.6v-17c-2-2-5.5-2.7-9.9-2.7"/>
    <polygon class="st0" points="277.8 59.8 260.5 74 260.5 127.6 277.8 127.6 277.8 59.8"/>
    <path class="st0" d="M498.2,91.8c-.5-23.1-18-39.2-41.5-38.6-21.4.6-37.8,18.7-37.2,41.2.5,22,17.9,38.5,40.2,38.2,8.1-.1,12.6-.8,15-3.7v-19.4c-4.4,3.5-8.2,6.1-13.1,6.6-12.2,1.3-23.9-8.1-25.2-20.3-1.4-13.2,7.6-24.8,20.2-25.9,13.1-1.2,24,8,24.6,21.4.5,11.3.6,22.6,0,33.9,0,1.1,0,1.9,0,2.7h17.1c.1-.9.1-1.9,0-3.1-.8-11,0-22-.3-33"/>
    <polygon class="st1" points="277.8 26.7 277.8 49.4 260.5 64.3 260.5 41 277.8 26.7"/>
  </g>
  <g>
    <path class="st1" d="M315.4,29.2l-2.1,2c-1.4-1.5-3-2.3-4.8-2.3s-2.8.5-3.8,1.5c-1,1-1.5,2.3-1.5,3.8s.2,2,.7,2.8c.5.8,1.1,1.4,1.9,1.9.8.5,1.8.7,2.8.7s1.7-.2,2.4-.5c.7-.3,1.5-.9,2.4-1.8l2,2.1c-1.2,1.1-2.3,1.9-3.3,2.4-1,.4-2.2.7-3.5.7-2.4,0-4.4-.8-6-2.3s-2.3-3.5-2.3-5.9.4-3,1.1-4.2c.7-1.2,1.7-2.2,3-2.9,1.3-.7,2.7-1.1,4.3-1.1s2.5.3,3.7.8,2.2,1.3,3.1,2.3Z"/>
    <path class="st1" d="M339.4,26.5h3l6,15.7h-3.1l-1.2-3.2h-6.4l-1.3,3.2h-3.1l6-15.7ZM340.9,30.7l-2.1,5.4h4.2l-2.1-5.4Z"/>
    <path class="st1" d="M367.3,26.5h3.2c1.7,0,2.9.2,3.7.5.8.3,1.4.8,1.8,1.5s.7,1.6.7,2.5-.3,2-.9,2.7-1.3,1.2-2.3,1.5c-.6.2-1.6.2-3.1.2v6.6h-3v-15.7ZM370.3,32.6h.9c.7,0,1.3,0,1.6-.2s.5-.3.7-.5.3-.5.3-.9c0-.6-.2-1-.7-1.3-.3-.2-1-.3-1.9-.3h-.8v3.2Z"/>
    <path class="st1" d="M396,26.5h3v15.7h-3v-15.7Z"/>
    <path class="st1" d="M417.3,26.5h8.7v2.9h-2.9v12.7h-3v-12.7h-2.8v-2.9Z"/>
    <path class="st1" d="M449.4,26.5h3l6,15.7h-3.1l-1.2-3.2h-6.4l-1.3,3.2h-3.1l6-15.7ZM451,30.7l-2.1,5.4h4.2l-2.1-5.4Z"/>
    <path class="st1" d="M477.4,26.5h3v12.8h4.4v2.8h-7.3v-15.7Z"/>
  </g>
</svg>